<mxfile host="app.diagrams.net" modified="2023-10-13T21:10:36.171Z" agent="Mozilla/5.0 (Macintosh; Intel Mac OS X 10_15_7) AppleWebKit/537.36 (KHTML, like Gecko) Chrome/117.0.0.0 Safari/537.36" version="21.8.2" etag="ATqG7dboypkSHEDvQCxL" type="github">
  <diagram name="第 1 页" id="8HiLRwOJ-M604AQmem4n">
    <mxGraphModel>
      <root>
        <mxCell id="0" />
        <mxCell id="1" parent="0" />
      </root>
    </mxGraphModel>
  </diagram>
</mxfile>
